<svg width="512" height="512" viewBox="0 0 60 60" fill="none" xmlns="http://www.w3.org/2000/svg">
  <rect width="60" height="60" rx="14" fill="#0b0f19"/>
  <defs>
    <linearGradient id="sunGrad" x1="0%" y1="0%" x2="100%" y2="100%">
      <stop offset="0%" stop-color="#FFEA68" />
      <stop offset="50%" stop-color="#FF9800" />
      <stop offset="100%" stop-color="#FF5E36" />
    </linearGradient>
    <filter id="sunGlow" x="-30%" y="-30%" width="160%" height="160%">
      <feGaussianBlur stdDeviation="4.5" result="blur" />
      <feComposite in="SourceGraphic" in2="blur" operator="over" />
    </filter>
  </defs>
  <g filter="url(#sunGlow)">
    <path d="M30 4 V12 M30 48 V56 M4 30 H12 M48 30 H56 M11.6 11.6 L17.3 17.3 M42.7 42.7 L48.4 48.4 M11.6 48.4 L17.3 42.7 M42.7 17.3 L48.4 11.6" stroke="url(#sunGrad)" stroke-width="3.8" stroke-linecap="round"/>
    <path d="M17.5 8 L20.5 14 M39.5 46 L42.5 52 M8 42.5 L14 39.5 M46 20.5 L52 17.5 M8 17.5 L14 20.5 M46 39.5 L52 42.5 M17.5 52 L20.5 46 M39.5 14 L42.5 8" stroke="url(#sunGrad)" stroke-width="2.2" stroke-linecap="round" opacity="0.65"/>
    <circle cx="30" cy="30" r="14" fill="url(#sunGrad)" />
    <circle cx="25" cy="25" r="5.5" fill="#FFF9E6" opacity="0.55" />
  </g>
</svg>
